<svg xmlns="http://www.w3.org/2000/svg" height="512" viewBox="0 -32 426.667 426" width="512"><path d="M214.001 181.001c4.266 0 8.532 1.277 11.73 3.625l160 106.668c5.762 3.84 9.602 10.238 9.602 17.707v64c0 11.73-9.601 21.332-21.332 21.332-4.27 0-8.535-1.281-11.734-3.625L214 291.935 65.73 390.708c-3.198 2.344-7.464 3.625-11.73 3.625-11.734 0-21.336-9.602-21.336-21.332v-64c0-7.469 3.84-13.867 9.602-17.707l160-106.668c3.2-2.348 7.465-3.625 11.734-3.625zm0 0" data-original="#000000" class="active-path" data-old_color="#000000" fill="#C70101"/><path d="M214.001-32.335c4.266 0 8.532 1.281 11.73 3.629l160 106.664c5.762 3.84 9.602 10.242 9.602 17.707v64c0 11.734-9.601 21.336-21.332 21.336-4.27 0-8.535-1.281-11.734-3.629L214 78.6 65.73 177.373c-3.198 2.348-7.464 3.629-11.73 3.629-11.734 0-21.336-9.602-21.336-21.336v-64c0-7.465 3.84-13.867 9.602-17.707l160-106.664c3.2-2.348 7.465-3.629 11.734-3.629zm0 0" data-original="#000000" class="active-path" data-old_color="#000000" fill="#C70101"/></svg>